<svg width="250" height="40" viewBox="0 0 250 40" fill="none" xmlns="http://www.w3.org/2000/svg">
<path d="M10.872 5.736C15.256 5.736 18.664 6.648 21.096 8.472C23.528 10.296 24.744 13 24.744 16.584C24.744 20.328 23.544 23.16 21.144 25.08C18.776 26.968 15.592 27.912 11.592 27.912H7.992V39H0.12V5.736H10.872ZM10.92 22.248C12.776 22.248 14.184 21.816 15.144 20.952C16.136 20.056 16.632 18.6 16.632 16.584C16.632 13.096 14.68 11.352 10.776 11.352H7.992V22.248H10.92ZM41.6438 12.792C42.5718 12.792 43.4198 12.904 44.1878 13.128L42.9878 20.472C42.0278 20.248 41.2598 20.136 40.6838 20.136C39.1798 20.136 38.0278 20.664 37.2278 21.72C36.4598 22.744 35.8518 24.296 35.4038 26.376V39H27.8198V13.512H34.4438L35.0678 18.456C35.6438 16.696 36.5078 15.32 37.6598 14.328C38.8438 13.304 40.1718 12.792 41.6438 12.792ZM56.6723 12.696C60.5763 12.696 63.6323 13.896 65.8403 16.296C68.0483 18.664 69.1523 21.992 69.1523 26.28C69.1523 29 68.6403 31.384 67.6163 33.432C66.6243 35.448 65.1843 37.016 63.2963 38.136C61.4403 39.256 59.2323 39.816 56.6723 39.816C52.8003 39.816 49.7443 38.632 47.5043 36.264C45.2963 33.864 44.1923 30.52 44.1923 26.232C44.1923 23.512 44.6883 21.144 45.6803 19.128C46.7043 17.08 48.1443 15.496 50.0003 14.376C51.8883 13.256 54.1123 12.696 56.6723 12.696ZM56.6723 18.264C55.1363 18.264 53.9843 18.92 53.2163 20.232C52.4483 21.512 52.0643 23.512 52.0643 26.232C52.0643 29.016 52.4323 31.048 53.1683 32.328C53.9363 33.608 55.1043 34.248 56.6723 34.248C58.2083 34.248 59.3603 33.608 60.1283 32.328C60.8963 31.016 61.2803 29 61.2803 26.28C61.2803 23.496 60.8963 21.464 60.1283 20.184C59.3923 18.904 58.2403 18.264 56.6723 18.264ZM85.3275 8.184C84.2395 8.184 83.4555 8.44 82.9755 8.952C82.4955 9.464 82.2555 10.328 82.2555 11.544V13.512H88.2555L87.4395 18.792H82.2555V39H74.6715V18.792H70.8315V13.512H74.6715V11.256C74.6715 8.696 75.5035 6.616 77.1675 5.016C78.8635 3.384 81.2795 2.568 84.4155 2.568C86.9435 2.568 89.2635 3.112 91.3755 4.2L89.3115 9.144C88.0315 8.504 86.7035 8.184 85.3275 8.184ZM91.1663 31.128C92.3503 31.128 93.3583 31.56 94.1903 32.424C95.0543 33.256 95.4863 34.264 95.4863 35.448C95.4863 36.664 95.0543 37.704 94.1903 38.568C93.3583 39.4 92.3503 39.816 91.1663 39.816C89.9503 39.816 88.9103 39.4 88.0463 38.568C87.2143 37.704 86.7983 36.664 86.7983 35.448C86.7983 34.264 87.2143 33.256 88.0463 32.424C88.9103 31.56 89.9503 31.128 91.1663 31.128ZM124.888 4.92C129.624 4.92 133.304 6.44 135.928 9.48C138.584 12.52 139.912 16.808 139.912 22.344C139.912 25.96 139.304 29.08 138.088 31.704C136.904 34.328 135.176 36.344 132.904 37.752C130.664 39.128 127.992 39.816 124.888 39.816C121.784 39.816 119.112 39.128 116.872 37.752C114.632 36.376 112.904 34.392 111.688 31.8C110.504 29.176 109.912 26.024 109.912 22.344C109.912 18.76 110.504 15.656 111.688 13.032C112.904 10.408 114.632 8.408 116.872 7.032C119.112 5.624 121.784 4.92 124.888 4.92ZM124.888 10.68C122.616 10.68 120.92 11.608 119.8 13.464C118.712 15.288 118.168 18.248 118.168 22.344C118.168 26.44 118.728 29.416 119.848 31.272C120.968 33.128 122.648 34.056 124.888 34.056C127.192 34.056 128.888 33.144 129.976 31.32C131.096 29.464 131.656 26.472 131.656 22.344C131.656 18.216 131.096 15.24 129.976 13.416C128.856 11.592 127.16 10.68 124.888 10.68ZM160.476 37.8C159.548 38.44 158.46 38.936 157.212 39.288C155.996 39.64 154.78 39.816 153.564 39.816C147.996 39.784 145.212 36.712 145.212 30.6V18.792H141.612V13.512H145.212V7.992L152.796 7.128V13.512H158.652L157.836 18.792H152.796V30.504C152.796 31.688 152.988 32.536 153.372 33.048C153.756 33.56 154.364 33.816 155.196 33.816C156.06 33.816 156.972 33.544 157.932 33L160.476 37.8ZM182.701 31.608C182.701 32.568 182.829 33.272 183.085 33.72C183.373 34.168 183.821 34.504 184.429 34.728L182.845 39.672C181.277 39.544 179.997 39.208 179.005 38.664C178.013 38.088 177.245 37.192 176.701 35.976C175.037 38.536 172.477 39.816 169.021 39.816C166.493 39.816 164.477 39.08 162.973 37.608C161.469 36.136 160.717 34.216 160.717 31.848C160.717 29.064 161.741 26.936 163.789 25.464C165.837 23.992 168.797 23.256 172.669 23.256H175.261V22.152C175.261 20.648 174.941 19.624 174.301 19.08C173.661 18.504 172.541 18.216 170.941 18.216C170.109 18.216 169.101 18.344 167.917 18.6C166.733 18.824 165.517 19.144 164.269 19.56L162.541 14.568C164.141 13.96 165.773 13.496 167.437 13.176C169.133 12.856 170.701 12.696 172.141 12.696C175.789 12.696 178.461 13.448 180.157 14.952C181.853 16.456 182.701 18.712 182.701 21.72V31.608ZM171.229 34.392C172.957 34.392 174.301 33.576 175.261 31.944V27.432H173.389C171.661 27.432 170.365 27.736 169.501 28.344C168.669 28.952 168.253 29.896 168.253 31.176C168.253 32.2 168.509 33 169.021 33.576C169.565 34.12 170.301 34.392 171.229 34.392ZM209.975 13.512L201.959 39H192.983L184.774 13.512H193.031L197.543 33.24L202.247 13.512H209.975ZM220.232 13.512V39H212.648V13.512H220.232ZM216.392 0.0719976C217.704 0.0719976 218.776 0.487998 219.608 1.32C220.472 2.12 220.904 3.144 220.904 4.392C220.904 5.64 220.472 6.68 219.608 7.512C218.776 8.312 217.704 8.712 216.392 8.712C215.08 8.712 214.008 8.312 213.176 7.512C212.344 6.68 211.928 5.64 211.928 4.392C211.928 3.144 212.344 2.12 213.176 1.32C214.008 0.487998 215.08 0.0719976 216.392 0.0719976ZM237.235 12.696C241.139 12.696 244.195 13.896 246.403 16.296C248.611 18.664 249.715 21.992 249.715 26.28C249.715 29 249.203 31.384 248.179 33.432C247.187 35.448 245.747 37.016 243.859 38.136C242.003 39.256 239.795 39.816 237.235 39.816C233.363 39.816 230.307 38.632 228.067 36.264C225.859 33.864 224.755 30.52 224.755 26.232C224.755 23.512 225.251 21.144 226.243 19.128C227.267 17.08 228.707 15.496 230.563 14.376C232.451 13.256 234.675 12.696 237.235 12.696ZM237.235 18.264C235.699 18.264 234.547 18.92 233.779 20.232C233.011 21.512 232.627 23.512 232.627 26.232C232.627 29.016 232.995 31.048 233.731 32.328C234.499 33.608 235.667 34.248 237.235 34.248C238.771 34.248 239.923 33.608 240.691 32.328C241.459 31.016 241.843 29 241.843 26.28C241.843 23.496 241.459 21.464 240.691 20.184C239.955 18.904 238.803 18.264 237.235 18.264Z" fill="#121212"/>
</svg>
