<svg width="209" height="35" viewBox="0 0 209 35" fill="none" xmlns="http://www.w3.org/2000/svg">
<path d="M9.56 6.28C13.2133 6.28 16.0533 7.04 18.08 8.56C20.1067 10.08 21.12 12.3333 21.12 15.32C21.12 18.44 20.12 20.8 18.12 22.4C16.1467 23.9733 13.4933 24.76 10.16 24.76H7.16V34H0.6V6.28H9.56ZM9.6 20.04C11.1467 20.04 12.32 19.68 13.12 18.96C13.9467 18.2133 14.36 17 14.36 15.32C14.36 12.4133 12.7333 10.96 9.48 10.96H7.16V20.04H9.6ZM35.2031 12.16C35.9765 12.16 36.6831 12.2533 37.3231 12.44L36.3231 18.56C35.5231 18.3733 34.8831 18.28 34.4031 18.28C33.1498 18.28 32.1898 18.72 31.5231 19.6C30.8831 20.4533 30.3765 21.7467 30.0031 23.48V34H23.6831V12.76H29.2031L29.7231 16.88C30.2031 15.4133 30.9231 14.2667 31.8831 13.44C32.8698 12.5867 33.9765 12.16 35.2031 12.16ZM47.7269 12.08C50.9802 12.08 53.5269 13.08 55.3669 15.08C57.2069 17.0533 58.1269 19.8267 58.1269 23.4C58.1269 25.6667 57.7002 27.6533 56.8469 29.36C56.0202 31.04 54.8202 32.3467 53.2469 33.28C51.7002 34.2133 49.8602 34.68 47.7269 34.68C44.5002 34.68 41.9535 33.6933 40.0869 31.72C38.2469 29.72 37.3269 26.9333 37.3269 23.36C37.3269 21.0933 37.7402 19.12 38.5669 17.44C39.4202 15.7333 40.6202 14.4133 42.1669 13.48C43.7402 12.5467 45.5935 12.08 47.7269 12.08ZM47.7269 16.72C46.4469 16.72 45.4869 17.2667 44.8469 18.36C44.2069 19.4267 43.8869 21.0933 43.8869 23.36C43.8869 25.68 44.1935 27.3733 44.8069 28.44C45.4469 29.5067 46.4202 30.04 47.7269 30.04C49.0069 30.04 49.9669 29.5067 50.6069 28.44C51.2469 27.3467 51.5669 25.6667 51.5669 23.4C51.5669 21.08 51.2469 19.3867 50.6069 18.32C49.9935 17.2533 49.0335 16.72 47.7269 16.72ZM71.6063 8.32C70.6996 8.32 70.0463 8.53333 69.6463 8.96C69.2463 9.38667 69.0463 10.1067 69.0463 11.12V12.76H74.0463L73.3663 17.16H69.0463V34H62.7263V17.16H59.5263V12.76H62.7263V10.88C62.7263 8.74667 63.4196 7.01333 64.8063 5.68C66.2196 4.32 68.2329 3.64 70.8463 3.64C72.9529 3.64 74.8863 4.09333 76.6463 5L74.9263 9.12C73.8596 8.58667 72.7529 8.32 71.6063 8.32ZM76.4719 27.44C77.4585 27.44 78.2985 27.8 78.9919 28.52C79.7119 29.2133 80.0719 30.0533 80.0719 31.04C80.0719 32.0533 79.7119 32.92 78.9919 33.64C78.2985 34.3333 77.4585 34.68 76.4719 34.68C75.4585 34.68 74.5919 34.3333 73.8719 33.64C73.1785 32.92 72.8319 32.0533 72.8319 31.04C72.8319 30.0533 73.1785 29.2133 73.8719 28.52C74.5919 27.8 75.4585 27.44 76.4719 27.44ZM104.573 5.6C108.52 5.6 111.587 6.86667 113.773 9.4C115.987 11.9333 117.093 15.5067 117.093 20.12C117.093 23.1333 116.587 25.7333 115.573 27.92C114.587 30.1067 113.147 31.7867 111.253 32.96C109.387 34.1067 107.16 34.68 104.573 34.68C101.987 34.68 99.7601 34.1067 97.8934 32.96C96.0268 31.8133 94.5868 30.16 93.5734 28C92.5868 25.8133 92.0934 23.1867 92.0934 20.12C92.0934 17.1333 92.5868 14.5467 93.5734 12.36C94.5868 10.1733 96.0268 8.50667 97.8934 7.36C99.7601 6.18667 101.987 5.6 104.573 5.6ZM104.573 10.4C102.68 10.4 101.267 11.1733 100.333 12.72C99.4268 14.24 98.9734 16.7067 98.9734 20.12C98.9734 23.5333 99.4401 26.0133 100.373 27.56C101.307 29.1067 102.707 29.88 104.573 29.88C106.493 29.88 107.907 29.12 108.813 27.6C109.747 26.0533 110.213 23.56 110.213 20.12C110.213 16.68 109.747 14.2 108.813 12.68C107.88 11.16 106.467 10.4 104.573 10.4ZM134.23 33C133.456 33.5333 132.55 33.9467 131.51 34.24C130.496 34.5333 129.483 34.68 128.47 34.68C123.83 34.6533 121.51 32.0933 121.51 27V17.16H118.51V12.76H121.51V8.16L127.83 7.44V12.76H132.71L132.03 17.16H127.83V26.92C127.83 27.9067 127.99 28.6133 128.31 29.04C128.63 29.4667 129.136 29.68 129.83 29.68C130.55 29.68 131.31 29.4533 132.11 29L134.23 33ZM152.751 27.84C152.751 28.64 152.857 29.2267 153.071 29.6C153.311 29.9733 153.684 30.2533 154.191 30.44L152.871 34.56C151.564 34.4533 150.497 34.1733 149.671 33.72C148.844 33.24 148.204 32.4933 147.751 31.48C146.364 33.6133 144.231 34.68 141.351 34.68C139.244 34.68 137.564 34.0667 136.311 32.84C135.057 31.6133 134.431 30.0133 134.431 28.04C134.431 25.72 135.284 23.9467 136.991 22.72C138.697 21.4933 141.164 20.88 144.391 20.88H146.551V19.96C146.551 18.7067 146.284 17.8533 145.751 17.4C145.217 16.92 144.284 16.68 142.951 16.68C142.257 16.68 141.417 16.7867 140.431 17C139.444 17.1867 138.431 17.4533 137.391 17.8L135.951 13.64C137.284 13.1333 138.644 12.7467 140.031 12.48C141.444 12.2133 142.751 12.08 143.951 12.08C146.991 12.08 149.217 12.7067 150.631 13.96C152.044 15.2133 152.751 17.0933 152.751 19.6V27.84ZM143.191 30.16C144.631 30.16 145.751 29.48 146.551 28.12V24.36H144.991C143.551 24.36 142.471 24.6133 141.751 25.12C141.057 25.6267 140.711 26.4133 140.711 27.48C140.711 28.3333 140.924 29 141.351 29.48C141.804 29.9333 142.417 30.16 143.191 30.16ZM147.111 0.599998L149.591 5.32L140.151 9.12L138.391 5.88L147.111 0.599998ZM175.479 12.76L168.799 34H161.319L154.479 12.76H161.359L165.119 29.2L169.039 12.76H175.479ZM184.027 12.76V34H177.707V12.76H184.027ZM180.827 1.56C181.92 1.56 182.813 1.90667 183.507 2.6C184.227 3.26666 184.587 4.12 184.587 5.16C184.587 6.2 184.227 7.06667 183.507 7.76C182.813 8.42667 181.92 8.76 180.827 8.76C179.733 8.76 178.84 8.42667 178.147 7.76C177.453 7.06667 177.107 6.2 177.107 5.16C177.107 4.12 177.453 3.26666 178.147 2.6C178.84 1.90667 179.733 1.56 180.827 1.56ZM198.196 12.08C201.449 12.08 203.996 13.08 205.836 15.08C207.676 17.0533 208.596 19.8267 208.596 23.4C208.596 25.6667 208.169 27.6533 207.316 29.36C206.489 31.04 205.289 32.3467 203.716 33.28C202.169 34.2133 200.329 34.68 198.196 34.68C194.969 34.68 192.422 33.6933 190.556 31.72C188.716 29.72 187.796 26.9333 187.796 23.36C187.796 21.0933 188.209 19.12 189.036 17.44C189.889 15.7333 191.089 14.4133 192.636 13.48C194.209 12.5467 196.062 12.08 198.196 12.08ZM198.196 16.72C196.916 16.72 195.956 17.2667 195.316 18.36C194.676 19.4267 194.356 21.0933 194.356 23.36C194.356 25.68 194.662 27.3733 195.276 28.44C195.916 29.5067 196.889 30.04 198.196 30.04C199.476 30.04 200.436 29.5067 201.076 28.44C201.716 27.3467 202.036 25.6667 202.036 23.4C202.036 21.08 201.716 19.3867 201.076 18.32C200.462 17.2533 199.502 16.72 198.196 16.72Z" fill="#121212"/>
</svg>
